<svg aria-hidden="true" style="position: absolute; width: 0; height: 0; overflow: hidden;" version="1.1" xmlns="http://www.w3.org/2000/svg" xmlns:xlink="http://www.w3.org/1999/xlink">
<defs>
<symbol id="twitter" viewBox="0 0 32 32">
<path fill="#55281d" style="fill: var(--color1, #55281d)" d="M28.768 8.064c-0.96 0.416-1.952 0.704-3.008 0.832 1.088-0.64 1.92-1.664 2.304-2.912-1.024 0.608-2.144 1.024-3.328 1.28-0.96-1.024-2.336-1.664-3.84-1.664-2.912 0-5.248 2.368-5.248 5.248 0 0.416 0.032 0.8 0.128 1.184-4.352-0.192-8.192-2.304-10.784-5.472-1.856 3.328 0.224 6.080 1.6 7.008-0.832 0-1.664-0.256-2.368-0.64 0 2.592 1.824 4.736 4.192 5.216-0.512 0.16-1.664 0.256-2.368 0.096 0.672 2.080 2.624 3.616 4.896 3.648-1.792 1.408-4.416 2.528-7.776 2.176 2.336 1.504 5.088 2.368 8.064 2.368 9.664 0 14.912-8 14.912-14.912 0-0.224 0-0.448-0.032-0.672 1.088-0.8 1.984-1.728 2.656-2.784z"></path>
</symbol>
<symbol id="star" viewBox="0 0 32 32">
<path fill="#55281d" style="fill: var(--color1, #55281d)" d="M16 2.667l4.12 8.347 9.213 1.347-6.667 6.493 1.573 9.173-8.24-4.333-8.24 4.333 1.573-9.173-6.667-6.493 9.213-1.347 4.12-8.347z"></path>
</symbol>
<symbol id="slide-right" viewBox="0 0 35 32">
<path fill="#ff7757" style="fill: var(--color2, #ff7757)" d="M0 6.347v19.041c0 3.505 2.842 6.347 6.347 6.347h22.215c3.505 0 6.347-2.842 6.347-6.347v-19.041c0-3.505-2.842-6.347-6.347-6.347h-22.215c-3.505 0-6.347 2.842-6.347 6.347z"></path>
<path fill="none" stroke="#fff" stroke-width="1.1636" stroke-miterlimit="4" stroke-linecap="round" stroke-linejoin="round" style="stroke: var(--color3, #fff)" d="M14.81 21.157l5.289-5.289-5.289-5.289"></path>
</symbol>
<symbol id="slide-left" viewBox="0 0 35 32">
<path fill="#55281d" style="fill: var(--color1, #55281d)" d="M34.909 25.388v-19.041c0-3.505-2.842-6.347-6.347-6.347h-22.215c-3.505 0-6.347 2.842-6.347 6.347v19.041c0 3.505 2.842 6.347 6.347 6.347h22.215c3.505 0 6.347-2.842 6.347-6.347z"></path>
<path fill="none" stroke="#fff" stroke-width="0.5818" stroke-miterlimit="4" stroke-linecap="round" stroke-linejoin="round" style="stroke: var(--color3, #fff)" d="M20.099 10.579l-5.289 5.289 5.289 5.289"></path>
</symbol>
<symbol id="pinterest" viewBox="0 0 32 32">
<path fill="#55281d" style="fill: var(--color1, #55281d)" d="M28.8 16.384c0.192-7.328-5.696-13.28-12.992-13.184-7.008 0.096-12.672 5.888-12.608 12.896 0.032 5.024 2.976 9.344 7.2 11.424 0.256 0.128 0.544-0.064 0.512-0.352-0.032-0.832 0-1.696 0.16-2.4s0.8-3.392 1.216-5.152c0.192-0.864 0.224-1.76 0.064-2.624-0.064-0.288-0.096-0.608-0.096-0.992 0-1.888 1.088-3.296 2.464-3.296 1.152 0 1.728 0.864 1.728 1.92 0 1.152-0.736 2.912-1.12 4.544-0.32 1.344 0.672 2.464 2.016 2.464 2.432 0 4.288-2.56 4.288-6.24 0-3.264-2.336-5.536-5.696-5.536-3.872 0-6.144 2.912-6.144 5.92 0 1.184 0.448 2.432 1.024 3.104 0.096 0.128 0.128 0.256 0.096 0.384-0.096 0.416-0.32 1.344-0.384 1.536-0.064 0.256-0.192 0.288-0.448 0.192-1.696-0.832-2.784-3.328-2.784-5.312 0-4.288 3.104-8.224 8.992-8.224 4.704 0 8.384 3.36 8.384 7.872 0 4.704-2.944 8.448-7.072 8.448-1.088 0-2.112-0.448-2.72-1.056-0.192-0.192-0.512-0.096-0.576 0.16-0.224 0.8-0.544 2.144-0.672 2.56-0.192 0.768-0.608 1.664-1.056 2.464-0.128 0.192 0 0.48 0.224 0.512 1.056 0.256 2.144 0.416 3.264 0.384 6.784-0.064 12.544-5.696 12.736-12.416z"></path>
</symbol>
<symbol id="logo" viewBox="0 0 163 32">
<path fill="#fff" style="fill: var(--color3, #fff)" d="M42.132 8.555v18.686h-3.52v-18.686h-5.753v-2.991h14.996v2.991h-5.723z"></path>
<path fill="#fff" style="fill: var(--color3, #fff)" d="M51.005 15.44c0.345-0.928 0.799-1.614 1.361-2.058 0.572-0.444 1.277-0.666 2.115-0.666 0.454 0 0.897 0.054 1.331 0.163 0.444 0.109 0.877 0.267 1.301 0.474l-1.154 2.724c-0.276-0.197-0.577-0.341-0.902-0.429-0.315-0.099-0.67-0.148-1.065-0.148-1.065 0-1.829 0.429-2.292 1.288-0.463 0.849-0.695 2.28-0.695 4.294v6.16h-3.209v-14.066h3.209v2.265z"></path>
<path fill="#fff" style="fill: var(--color3, #fff)" d="M72.139 27.241h-3.209v-1.821c-0.572 0.809-1.242 1.412-2.011 1.806-0.759 0.395-1.632 0.592-2.618 0.592-1.982 0-3.544-0.676-4.688-2.029-1.134-1.362-1.701-3.223-1.701-5.582 0-2.241 0.582-4.047 1.745-5.419 1.163-1.382 2.682-2.073 4.555-2.073 1.144 0 2.12 0.242 2.928 0.726 0.818 0.474 1.415 1.16 1.79 2.058v-2.295h3.209v14.037zM69.019 20.178c0-1.451-0.34-2.581-1.020-3.391-0.67-0.809-1.612-1.214-2.825-1.214s-2.169 0.419-2.869 1.259c-0.69 0.829-1.035 1.984-1.035 3.465 0 1.491 0.335 2.64 1.006 3.45s1.617 1.214 2.84 1.214c1.154 0 2.090-0.439 2.81-1.318 0.73-0.879 1.094-2.033 1.094-3.465z"></path>
<path fill="#fff" style="fill: var(--color3, #fff)" d="M81.501 28.085l-7.35-14.881h3.505l3.061 7.063c0.099 0.217 0.217 0.543 0.355 0.977s0.281 0.953 0.429 1.555c0.099-0.424 0.212-0.844 0.34-1.259 0.138-0.424 0.301-0.849 0.488-1.273l3.046-7.063h3.491l-7.366 14.881z"></path>
<path fill="#fff" style="fill: var(--color3, #fff)" d="M104.394 20.697h-11.21c0.079 1.313 0.469 2.339 1.169 3.080 0.7 0.73 1.631 1.096 2.795 1.096 1.035 0 1.898-0.217 2.588-0.651s1.292-1.135 1.805-2.103l2.706 1.51c-0.788 1.412-1.764 2.463-2.928 3.154s-2.529 1.036-4.097 1.036c-2.248 0-4.038-0.686-5.368-2.058s-1.997-3.203-1.997-5.493c0-2.201 0.685-4.008 2.056-5.419 1.38-1.421 3.15-2.132 5.309-2.132 2.258 0 4.018 0.647 5.28 1.94s1.893 3.104 1.893 5.434v0.607zM101.067 18.535c-0.129-1.007-0.513-1.772-1.154-2.295-0.641-0.533-1.518-0.8-2.632-0.8-1.055 0-1.903 0.257-2.543 0.77s-1.090 1.288-1.346 2.325h7.676z"></path>
<path fill="#fff" style="fill: var(--color3, #fff)" d="M107.9 27.241v-22.95h3.209v22.95h-3.209z"></path>
<path fill="#fff" style="fill: var(--color3, #fff)" d="M115.856 27.241v-22.95h3.21v22.95h-3.21z"></path>
<path fill="#fff" style="fill: var(--color3, #fff)" d="M123.384 7.134c0-0.543 0.198-1.012 0.592-1.407 0.404-0.395 0.882-0.592 1.434-0.592 0.572 0 1.045 0.192 1.42 0.577 0.385 0.375 0.577 0.849 0.577 1.421s-0.192 1.056-0.577 1.451c-0.385 0.385-0.858 0.577-1.42 0.577-0.552 0-1.030-0.197-1.434-0.592-0.394-0.405-0.592-0.883-0.592-1.436zM123.813 27.241v-14.037h3.209v14.037h-3.209z"></path>
<path fill="#fff" style="fill: var(--color3, #fff)" d="M144.814 27.241h-3.21v-1.821c-0.572 0.809-1.242 1.412-2.011 1.806-0.759 0.395-1.632 0.592-2.618 0.592-1.982 0-3.544-0.676-4.688-2.029-1.134-1.362-1.701-3.223-1.701-5.582 0-2.241 0.582-4.047 1.745-5.419 1.163-1.382 2.682-2.073 4.554-2.073 1.144 0 2.12 0.242 2.929 0.726 0.818 0.474 1.415 1.16 1.789 2.058v-2.295h3.21v14.037zM141.693 20.178c0-1.451-0.34-2.581-1.021-3.391-0.671-0.809-1.612-1.214-2.825-1.214s-2.169 0.419-2.869 1.259c-0.69 0.829-1.035 1.984-1.035 3.465 0 1.491 0.335 2.64 1.005 3.45s1.617 1.214 2.84 1.214c1.154 0 2.090-0.439 2.81-1.318 0.729-0.879 1.094-2.033 1.094-3.465z"></path>
<path fill="#fff" style="fill: var(--color3, #fff)" d="M149.25 27.241v-14.037h3.017v2.295c0.641-0.967 1.395-1.673 2.263-2.117s1.923-0.666 3.165-0.666c1.045 0 1.933 0.168 2.662 0.503 0.739 0.326 1.317 0.814 1.731 1.466 0.246 0.385 0.424 0.834 0.532 1.347s0.163 1.412 0.163 2.695v8.514h-3.239v-7.211c0-1.846-0.227-3.070-0.68-3.672-0.444-0.612-1.237-0.918-2.381-0.918-0.749 0-1.419 0.138-2.011 0.415-0.582 0.276-1.040 0.666-1.375 1.17-0.237 0.336-0.404 0.77-0.503 1.303-0.088 0.523-0.133 1.362-0.133 2.517v6.396h-3.21z"></path>
<path fill="#fff" style="fill: var(--color3, #fff)" d="M10.047 23.129l4.116 4.058 4.116-4.058-4.116-4.057-4.116 4.057zM14.163 3.437v0.006c-1.178 0-2.356 0.443-3.253 1.328l-0.004-0.004c-0.895 0.885-1.345 2.048-1.345 3.211 0 1.165 0.448 2.327 1.341 3.207h0.006l3.256 3.207 3.254-3.207h0.006c0.899-0.887 1.349-2.048 1.349-3.207h-0.006c0-1.161-0.45-2.323-1.347-3.207-0.904-0.889-2.082-1.334-3.256-1.334zM20.652 25.467l-6.489 6.396-6.488-6.396-5.302 5.227-2.373-2.339 11.793-11.623-3.254-3.207 0.004-0.004c-1.558-1.534-2.335-3.541-2.335-5.542 0-2.003 0.778-4.009 2.331-5.54v-0.004c1.554-1.531 3.59-2.298 5.624-2.298v0.006c2.038 0 4.077 0.765 5.626 2.292 1.554 1.531 2.329 3.539 2.329 5.546h-0.006c0 2.005-0.776 4.011-2.327 5.542l0.004 0.004-3.253 3.205 11.791 11.623-2.373 2.339-5.302-5.227z"></path>
</symbol>
<symbol id="location" viewBox="0 0 32 32">
<path fill="#55281d" style="fill: var(--color1, #55281d)" d="M4.75 11.25c0 5.557 4.243 11.586 7.986 16.797 0.89 1.238 1.742 2.423 2.484 3.536 0.174 0.261 0.467 0.418 0.78 0.418s0.606-0.157 0.78-0.418c0.742-1.112 1.594-2.298 2.484-3.536 3.744-5.21 7.986-11.24 7.986-16.797 0-6.204-5.046-11.25-11.25-11.25s-11.25 5.046-11.25 11.25zM21.625 11.25c0 3.102-2.523 5.625-5.625 5.625s-5.625-2.523-5.625-5.625c0-3.102 2.523-5.625 5.625-5.625s5.625 2.523 5.625 5.625z"></path>
<path fill="#55281d" style="fill: var(--color1, #55281d)" d="M16 15c2.071 0 3.75-1.679 3.75-3.75s-1.679-3.75-3.75-3.75-3.75 1.679-3.75 3.75c0 2.071 1.679 3.75 3.75 3.75z"></path>
</symbol>
<symbol id="instagram" viewBox="0 0 32 32">
<path fill="#55281d" style="fill: var(--color1, #55281d)" d="M16.315 32c-0.106 0-0.212 0-0.319-0-2.508 0.006-4.826-0.058-7.080-0.195-2.066-0.126-3.953-0.84-5.455-2.065-1.45-1.182-2.44-2.781-2.942-4.75-0.438-1.715-0.461-3.398-0.483-5.026-0.016-1.168-0.033-2.553-0.036-3.96 0.003-1.414 0.020-2.798 0.036-3.966 0.022-1.628 0.045-3.311 0.483-5.026 0.503-1.97 1.493-3.568 2.942-4.75 1.502-1.225 3.389-1.939 5.455-2.065 2.254-0.137 4.572-0.201 7.086-0.195 2.509-0.005 4.826 0.058 7.080 0.195 2.066 0.126 3.953 0.84 5.455 2.065 1.45 1.182 2.44 2.781 2.942 4.75 0.438 1.715 0.461 3.398 0.483 5.026 0.016 1.168 0.033 2.552 0.036 3.96v0.006c-0.003 1.408-0.020 2.792-0.036 3.96-0.022 1.628-0.045 3.311-0.483 5.026-0.503 1.97-1.492 3.568-2.942 4.75-1.502 1.225-3.389 1.939-5.455 2.065-2.158 0.131-4.376 0.195-6.767 0.195zM15.996 29.5c2.468 0.006 4.733-0.056 6.934-0.19 1.563-0.095 2.917-0.602 4.027-1.507 1.026-0.837 1.732-1.991 2.1-3.431 0.364-1.427 0.385-2.96 0.405-4.442 0.016-1.16 0.032-2.535 0.036-3.929-0.003-1.394-0.020-2.769-0.036-3.929-0.020-1.482-0.041-3.015-0.405-4.443-0.367-1.44-1.074-2.594-2.1-3.431-1.11-0.905-2.465-1.412-4.027-1.507-2.201-0.134-4.467-0.196-6.928-0.19-2.467-0.006-4.733 0.056-6.934 0.19-1.563 0.095-2.917 0.602-4.027 1.507-1.026 0.837-1.732 1.991-2.1 3.431-0.364 1.428-0.385 2.96-0.406 4.443-0.016 1.161-0.032 2.537-0.036 3.932 0.003 1.389 0.020 2.765 0.036 3.926 0.020 1.482 0.041 3.015 0.406 4.442 0.367 1.44 1.074 2.594 2.1 3.431 1.11 0.905 2.465 1.412 4.027 1.507 2.201 0.134 4.467 0.197 6.928 0.19zM15.937 23.813c-4.308 0-7.812-3.505-7.812-7.812s3.505-7.813 7.812-7.813c4.308 0 7.813 3.505 7.813 7.813s-3.505 7.812-7.813 7.812zM15.937 10.688c-2.929 0-5.312 2.383-5.312 5.313s2.383 5.312 5.312 5.312c2.929 0 5.313-2.383 5.313-5.312s-2.383-5.313-5.313-5.313zM24.624 5.688c-1.035 0-1.875 0.839-1.875 1.875s0.84 1.875 1.875 1.875c1.036 0 1.875-0.839 1.875-1.875s-0.839-1.875-1.875-1.875z"></path>
</symbol>
<symbol id="hamburger" viewBox="0 0 32 32">
<path fill="#55281d" style="fill: var(--color1, #55281d)" d="M4.667 9.333c-0.368 0-0.667-0.298-0.667-0.667s0.298-0.667 0.667-0.667h22.667c0.368 0 0.667 0.299 0.667 0.667s-0.299 0.667-0.667 0.667h-22.667zM4.667 16c-0.368 0-0.667-0.299-0.667-0.667s0.298-0.667 0.667-0.667h22.667c0.368 0 0.667 0.299 0.667 0.667s-0.299 0.667-0.667 0.667h-22.667zM4.667 22.667c-0.368 0-0.667-0.299-0.667-0.667s0.298-0.667 0.667-0.667h22.667c0.368 0 0.667 0.299 0.667 0.667s-0.299 0.667-0.667 0.667h-22.667z"></path>
</symbol>
<symbol id="facebook" viewBox="0 0 32 32">
<path fill="#55281d" style="fill: var(--color1, #55281d)" d="M15.949 0.485c2.885 0.033 5.491 0.742 7.818 2.127 2.3 1.357 4.212 3.282 5.556 5.59 1.377 2.341 2.081 4.963 2.114 7.865-0.082 3.971-1.334 7.362-3.757 10.174s-5.527 4.552-8.739 5.219v-11.133h3.037l0.687-4.375h-4.599v-2.866c-0.026-0.594 0.162-1.178 0.53-1.645 0.368-0.469 1.016-0.715 1.943-0.739h2.777v-3.832c-0.040-0.013-0.418-0.064-1.134-0.152-0.812-0.095-1.63-0.146-2.448-0.152-1.851 0.009-3.316 0.531-4.393 1.567s-1.627 2.534-1.651 4.495v3.325h-3.5v4.375h3.5v11.133c-3.945-0.667-7.048-2.407-9.471-5.219s-3.675-6.204-3.757-10.174c0.033-2.902 0.737-5.524 2.114-7.865 1.343-2.308 3.256-4.232 5.556-5.59 2.327-1.385 4.933-2.094 7.818-2.127z"></path>
</symbol>
<symbol id="chevron-down" viewBox="0 0 33 32">
<path fill="none" stroke="#55281d" stroke-width="0.5517" stroke-miterlimit="4" stroke-linecap="round" stroke-linejoin="round" style="stroke: var(--color1, #55281d)" d="M8.607 11.917l7.945 7.945 7.945-7.945"></path>
</symbol>
<symbol id="arrow" viewBox="0 0 44 32">
<path fill="#55281d" style="fill: var(--color1, #55281d)" d="M43.055 17.27c0.775-0.775 0.775-2.030 0-2.805l-12.623-12.623c-0.775-0.775-2.030-0.775-2.805 0s-0.775 2.030 0 2.805l11.22 11.22-11.22 11.22c-0.775 0.775-0.775 2.030 0 2.805s2.030 0.775 2.805 0l12.623-12.623zM0 17.851h41.653v-3.967h-41.653v3.967z"></path>
</symbol>
</defs>
</svg>
